 <svg width="213" height="26" viewBox="0 0 213 26" fill="none" xmlns="http://www.w3.org/2000/svg">
    <path d="M13.4154 2.60098L8.24004 2.61044L2.17807 13.0804L8.27859 23.6355H13.5503L7.16065 13.0709L13.4154 2.60098ZM16.3548 0.312149L22.9372 13.1277L16.2873 25.8959H7.20883L0 13.1561L7.20883 0.312149H16.3548ZM11.8155 17.5919L14.514 12.9953L11.9119 8.55004L9.12669 13.175L11.8155 17.5919ZM16.1331 13.9789L13.1359 19.5591L15.6513 23.5598L20.4893 13.9884L16.1331 13.9789ZM15.3236 2.61044L13.1166 6.64899L16.1331 12.0117H20.6435L15.3236 2.61044Z" fill="#0139FE" />
    <path d="M27.9636 22.6524V3.22933H35.1405C37.7336 3.22933 39.6557 3.66812 40.9066 4.5457C42.1666 5.41432 42.7967 6.67248 42.7967 8.32018C42.7967 9.2873 42.5456 10.1291 42.0434 10.8454C41.5412 11.5529 40.6464 12.1708 39.3589 12.6991C40.1898 12.9051 40.8609 13.1827 41.3723 13.5319C41.8836 13.8811 42.2762 14.2707 42.5501 14.7005C42.8241 15.1214 43.0113 15.5647 43.1117 16.0303C43.2121 16.487 43.2624 16.9392 43.2624 17.387C43.2624 19.178 42.6415 20.5033 41.3997 21.3629C40.1579 22.2226 38.181 22.6524 35.4692 22.6524H27.9636ZM31.9492 19.6167H35.5514C36.7566 19.6167 37.6651 19.3794 38.2769 18.9048C38.8978 18.4302 39.2083 17.7944 39.2083 16.9974C39.2083 16.4243 39.0576 15.9452 38.7563 15.5602C38.455 15.1662 38.0441 14.8707 37.5236 14.6737C37.0123 14.4766 36.4279 14.3781 35.7705 14.3781H31.9492V19.6167ZM31.9492 11.2618H35.7705C36.1814 11.2618 36.574 11.2171 36.9484 11.1275C37.3319 11.029 37.6697 10.8813 37.9619 10.6843C38.2632 10.4873 38.5006 10.2365 38.6741 9.93205C38.8476 9.61863 38.9343 9.25148 38.9343 8.8306C38.9343 7.98884 38.6102 7.35305 37.9619 6.92322C37.3227 6.48443 36.501 6.26503 35.4966 6.26503H31.9492V11.2618Z" fill="#0139FE" />
    <path d="M50.3179 22.8942C49.2769 22.8942 48.4506 22.7733 47.8388 22.5316C47.2271 22.2898 46.7751 21.9719 46.4829 21.5779C46.1907 21.1749 46.0035 20.7316 45.9214 20.2481C45.8392 19.7555 45.7981 19.2585 45.7981 18.7571V2.69204H49.7152V18.2735C49.7152 18.7839 49.8248 19.2003 50.0439 19.5227C50.2722 19.8361 50.6968 20.0287 51.3177 20.1003L51.9888 20.1406V22.5584C51.7149 22.648 51.4364 22.7241 51.1533 22.7868C50.8703 22.8584 50.5918 22.8942 50.3179 22.8942Z" fill="#0139FE" />
    <path d="M59.2994 22.9211C58.642 22.9211 57.9937 22.8226 57.3545 22.6256C56.7245 22.4286 56.1493 22.1375 55.6288 21.7525C55.1083 21.3674 54.6883 20.8928 54.3687 20.3287C54.0583 19.7645 53.9031 19.1108 53.9031 18.3675V8.76344H57.9024V17.8705C57.9024 18.5153 58.1169 19.0436 58.5461 19.4556C58.9752 19.8675 59.6053 20.0734 60.4362 20.0734C61.2214 20.0734 61.8423 19.8764 62.2989 19.4824C62.7645 19.0795 62.9974 18.5198 62.9974 17.8034V8.76344H66.9556V22.6524H63.9424L63.4768 19.8988C63.3124 20.7137 63.002 21.3406 62.5454 21.7793C62.098 22.2092 61.5821 22.5047 60.9977 22.6659C60.4225 22.836 59.8564 22.9211 59.2994 22.9211Z" fill="#0139FE" />
    <path d="M73.0879 16.6079C73.0788 17.3153 73.1929 17.9332 73.4303 18.4616C73.6677 18.9809 74.0101 19.3839 74.4575 19.6705C74.9141 19.9481 75.4619 20.0869 76.1011 20.0869C76.7859 20.0869 77.384 19.9436 77.8953 19.657C78.4157 19.3705 78.7764 18.9004 78.9773 18.2466H82.5794C82.4242 19.2317 82.0224 20.0734 81.3741 20.7719C80.735 21.4704 79.9589 22.0032 79.0458 22.3704C78.1327 22.7375 77.1831 22.9211 76.1969 22.9211C74.7999 22.9211 73.5673 22.6345 72.499 22.0614C71.4398 21.4794 70.6134 20.66 70.0199 19.6033C69.4264 18.5466 69.1297 17.3019 69.1297 15.8691C69.1297 14.4811 69.399 13.2319 69.9377 12.1215C70.4765 11.0022 71.2572 10.1201 72.2798 9.47535C73.3116 8.82165 74.5488 8.4948 75.9915 8.4948C77.4342 8.4948 78.644 8.79478 79.621 9.39476C80.6071 9.98578 81.3467 10.8141 81.8398 11.8797C82.342 12.9364 82.5931 14.1588 82.5931 15.5468V16.6079H73.0879ZM73.0742 14.2707H78.854C78.854 13.7155 78.749 13.2051 78.539 12.7394C78.329 12.2737 78.0094 11.9066 77.5803 11.638C77.1603 11.3693 76.6307 11.235 75.9915 11.235C75.3706 11.235 74.841 11.3827 74.4027 11.6783C73.9736 11.9648 73.6449 12.3409 73.4166 12.8066C73.1883 13.2722 73.0742 13.7603 73.0742 14.2707Z" fill="#0139FE" />
    <path d="M93.5326 2.96069C95.0209 2.96069 96.3449 3.2562 97.5045 3.84722C98.6732 4.42928 99.6137 5.22627 100.326 6.23817C101.047 7.25007 101.472 8.39181 101.6 9.6634H97.4086C97.2808 8.99179 97.0479 8.39629 96.7101 7.87691C96.3723 7.34857 95.9294 6.93665 95.3816 6.64114C94.8337 6.33667 94.1763 6.18444 93.4093 6.18444C92.4871 6.18444 91.6927 6.40383 91.0261 6.84262C90.3596 7.28141 89.8483 7.98884 89.4922 8.96493C89.1361 9.94101 88.958 11.2305 88.958 12.8334C88.958 15.2512 89.3506 17.0019 90.1359 18.0855C90.9303 19.16 92.0214 19.6973 93.4093 19.6973C94.1763 19.6973 94.8337 19.5272 95.3816 19.1869C95.9294 18.8377 96.3723 18.381 96.7101 17.8168C97.0479 17.2437 97.2808 16.6169 97.4086 15.9363H101.6C101.481 16.8586 101.253 17.7407 100.915 18.5825C100.577 19.4153 100.098 20.1585 99.4767 20.8122C98.8559 21.4659 98.0569 21.9808 97.0799 22.3569C96.1029 22.733 94.9205 22.9211 93.5326 22.9211C91.6881 22.9211 90.0948 22.5002 88.7526 21.6585C87.4103 20.8167 86.374 19.6347 85.6435 18.1123C84.9222 16.59 84.5615 14.8125 84.5615 12.7797C84.5615 10.738 84.9222 8.98731 85.6435 7.52767C86.3649 6.05907 87.3966 4.93076 88.7389 4.14273C90.0811 3.3547 91.679 2.96069 93.5326 2.96069Z" fill="#0139FE" />
    <path d="M110.344 22.9211C108.956 22.9211 107.746 22.6301 106.715 22.048C105.692 21.4659 104.898 20.6421 104.331 19.5764C103.774 18.5108 103.496 17.2482 103.496 15.7885C103.496 14.3289 103.774 13.0528 104.331 11.9603C104.898 10.8678 105.692 10.0171 106.715 9.40819C107.746 8.79926 108.961 8.4948 110.358 8.4948C111.755 8.4948 112.965 8.79478 113.987 9.39476C115.01 9.98578 115.8 10.8275 116.357 11.92C116.914 13.0125 117.192 14.302 117.192 15.7885C117.192 17.1855 116.918 18.4213 116.37 19.4959C115.832 20.5615 115.051 21.3988 114.028 22.0077C113.015 22.6166 111.787 22.9211 110.344 22.9211ZM110.358 20.0063C111.061 20.0063 111.627 19.8048 112.056 19.4018C112.485 18.9989 112.796 18.4705 112.987 17.8168C113.188 17.1542 113.289 16.4333 113.289 15.6542C113.289 14.9199 113.197 14.2259 113.015 13.5722C112.841 12.9185 112.54 12.3902 112.111 11.9872C111.682 11.5842 111.097 11.3827 110.358 11.3827C109.655 11.3827 109.084 11.5753 108.646 11.9603C108.217 12.3364 107.902 12.8513 107.701 13.505C107.5 14.1498 107.399 14.8662 107.399 15.6542C107.399 16.3796 107.491 17.078 107.673 17.7497C107.856 18.4123 108.162 18.9541 108.591 19.375C109.02 19.7958 109.609 20.0063 110.358 20.0063Z" fill="#0139FE" />
    <path d="M124.707 22.9211C122.808 22.9211 121.329 22.2808 120.269 21.0003C119.21 19.7108 118.681 17.9198 118.681 15.6273C118.681 14.1767 118.895 12.9185 119.324 11.8529C119.753 10.7872 120.388 9.96339 121.228 9.38133C122.068 8.79031 123.095 8.4948 124.31 8.4948C124.821 8.4948 125.296 8.553 125.734 8.66942C126.182 8.77687 126.588 8.92911 126.953 9.12611C127.318 9.32312 127.638 9.55147 127.912 9.81116C128.186 10.0709 128.41 10.3485 128.583 10.644V2.69204H132.596V22.6524H129.692L129.24 19.8048C129.113 20.1899 128.935 20.566 128.706 20.9331C128.478 21.3003 128.186 21.6361 127.83 21.9405C127.474 22.236 127.035 22.4733 126.515 22.6524C126.004 22.8315 125.401 22.9211 124.707 22.9211ZM125.584 20.1003C126.588 20.1003 127.337 19.7555 127.83 19.066C128.332 18.3765 128.583 17.2124 128.583 15.5736C128.574 14.6244 128.46 13.8364 128.241 13.2095C128.021 12.5827 127.693 12.117 127.254 11.8126C126.825 11.4992 126.277 11.3424 125.611 11.3424C124.743 11.3424 124.022 11.6693 123.447 12.323C122.872 12.9678 122.584 14.0513 122.584 15.5736C122.584 17.1228 122.853 18.2646 123.392 18.9989C123.931 19.7332 124.661 20.1003 125.584 20.1003Z" fill="#0139FE" />
    <path d="M138.909 16.6079C138.9 17.3153 139.014 17.9332 139.252 18.4616C139.489 18.9809 139.831 19.3839 140.279 19.6705C140.735 19.9481 141.283 20.0869 141.922 20.0869C142.607 20.0869 143.205 19.9436 143.717 19.657C144.237 19.3705 144.598 18.9004 144.799 18.2466H148.401C148.245 19.2317 147.844 20.0734 147.195 20.7719C146.556 21.4704 145.78 22.0032 144.867 22.3704C143.954 22.7375 143.004 22.9211 142.018 22.9211C140.621 22.9211 139.389 22.6345 138.32 22.0614C137.261 21.4794 136.435 20.66 135.841 19.6033C135.248 18.5466 134.951 17.3019 134.951 15.8691C134.951 14.4811 135.22 13.2319 135.759 12.1215C136.298 11.0022 137.078 10.1201 138.101 9.47535C139.133 8.82165 140.37 8.4948 141.813 8.4948C143.255 8.4948 144.465 8.79478 145.442 9.39476C146.428 9.98578 147.168 10.8141 147.661 11.8797C148.163 12.9364 148.414 14.1588 148.414 15.5468V16.6079H138.909ZM138.895 14.2707H144.675C144.675 13.7155 144.57 13.2051 144.36 12.7394C144.15 12.2737 143.831 11.9066 143.402 11.638C142.982 11.3693 142.452 11.235 141.813 11.235C141.192 11.235 140.662 11.3827 140.224 11.6783C139.795 11.9648 139.466 12.3409 139.238 12.8066C139.01 13.2722 138.895 13.7603 138.895 14.2707Z" fill="#0139FE" />
    <path d="M154.902 6.72173V3.22933H170.749V6.72173H164.9V22.6524H160.887V6.72173H154.902Z" fill="#0139FE" />
    <path d="M173.763 16.6079C173.754 17.3153 173.868 17.9332 174.105 18.4616C174.343 18.9809 174.685 19.3839 175.133 19.6705C175.589 19.9481 176.137 20.0869 176.776 20.0869C177.461 20.0869 178.059 19.9436 178.57 19.657C179.091 19.3705 179.451 18.9004 179.652 18.2466H183.254C183.099 19.2317 182.697 20.0734 182.049 20.7719C181.41 21.4704 180.634 22.0032 179.721 22.3704C178.808 22.7375 177.858 22.9211 176.872 22.9211C175.475 22.9211 174.242 22.6345 173.174 22.0614C172.115 21.4794 171.288 20.66 170.695 19.6033C170.101 18.5466 169.805 17.3019 169.805 15.8691C169.805 14.4811 170.074 13.2319 170.613 12.1215C171.152 11.0022 171.932 10.1201 172.955 9.47535C173.987 8.82165 175.224 8.4948 176.667 8.4948C178.109 8.4948 179.319 8.79478 180.296 9.39476C181.282 9.98578 182.022 10.8141 182.515 11.8797C183.017 12.9364 183.268 14.1588 183.268 15.5468V16.6079H173.763ZM173.749 14.2707H179.529C179.529 13.7155 179.424 13.2051 179.214 12.7394C179.004 12.2737 178.684 11.9066 178.255 11.638C177.835 11.3693 177.306 11.235 176.667 11.235C176.046 11.235 175.516 11.3827 175.078 11.6783C174.649 11.9648 174.32 12.3409 174.092 12.8066C173.863 13.2722 173.749 13.7603 173.749 14.2707Z" fill="#0139FE" />
    <path d="M191.701 8.4948C192.888 8.4948 193.911 8.7321 194.769 9.20671C195.637 9.68131 196.317 10.3216 196.81 11.1275C197.312 11.9335 197.6 12.8334 197.673 13.8274H194.345C194.281 13.4603 194.148 13.0976 193.947 12.7394C193.746 12.3723 193.463 12.0723 193.098 11.8394C192.733 11.5977 192.276 11.4768 191.729 11.4768C190.797 11.4768 190.039 11.8305 189.455 12.5379C188.88 13.2364 188.592 14.302 188.592 15.7348C188.592 17.087 188.875 18.1616 189.441 18.9586C190.007 19.7466 190.797 20.1406 191.811 20.1406C192.349 20.1406 192.797 20.0108 193.153 19.7511C193.518 19.4914 193.801 19.1824 194.002 18.8242C194.203 18.4571 194.331 18.1168 194.386 17.8034H197.632C197.568 18.7616 197.285 19.6302 196.783 20.4093C196.28 21.1794 195.595 21.7928 194.728 22.2495C193.87 22.6972 192.861 22.9211 191.701 22.9211C190.386 22.9211 189.213 22.6345 188.181 22.0614C187.149 21.4883 186.337 20.6689 185.743 19.6033C185.159 18.5287 184.867 17.2482 184.867 15.7617C184.867 14.3289 185.15 13.0663 185.716 11.9738C186.282 10.8813 187.076 10.0306 188.099 9.42162C189.131 8.80374 190.332 8.4948 191.701 8.4948Z" fill="#0139FE" />
    <path d="M200.016 22.6524V2.69204H203.988V10.7649C204.216 10.4425 204.504 10.1246 204.851 9.81116C205.198 9.48879 205.631 9.22014 206.152 9.00522C206.672 8.79031 207.307 8.68285 208.056 8.68285C208.96 8.68285 209.781 8.85747 210.521 9.20671C211.27 9.54699 211.868 10.044 212.315 10.6977C212.772 11.3514 213 12.1484 213 13.0886V22.6524H208.987V13.6662C208.987 13.0394 208.754 12.5603 208.288 12.229C207.832 11.8887 207.275 11.7185 206.617 11.7185C206.188 11.7185 205.773 11.7947 205.371 11.9469C204.969 12.0991 204.641 12.332 204.385 12.6454C204.138 12.9498 204.015 13.3304 204.015 13.7871V22.6524H200.016Z" fill="#0139FE" />
</svg>