<svg width="208" height="38" viewBox="0 0 208 38" fill="none" xmlns="http://www.w3.org/2000/svg"><path fill-rule="evenodd" clip-rule="evenodd" d="M37.2808 10.78C37.1781 20.8379 37.1268 21.689 36.6134 23.5716C34.3288 31.85 27.09 37.4206 18.5933 37.4206C11.5085 37.4206 5.34782 33.6553 2.03644 27.3369C0.213896 23.8553 -0.479181 18.749 0.342246 14.9063C1.75407 8.38159 6.70831 2.96579 13.3311 0.773685C15.0766 0.206316 15.4616 0.180527 26.2429 0.0773693L37.3835 0L37.2808 10.78ZM8.47096 9.54212C8.47096 8.5451 9.27545 7.73686 10.2678 7.73686H15.6585C16.6508 7.73686 17.4553 8.5451 17.4553 9.54212V15.2158C17.4553 16.2128 16.6508 17.0211 15.6585 17.0211H10.2678C9.27545 17.0211 8.47096 16.2128 8.47096 15.2158V9.54212ZM10.2678 18.5684C9.27545 18.5684 8.47096 19.3767 8.47096 20.3737V26.0474C8.47096 27.0444 9.27545 27.8527 10.2678 27.8527H15.6585C16.6508 27.8527 17.4553 27.0444 17.4553 26.0474V20.3737C17.4553 19.3767 16.6508 18.5684 15.6585 18.5684H10.2678ZM20.279 9.54212C20.279 8.5451 21.0835 7.73686 22.0759 7.73686H27.7232C28.7156 7.73686 29.52 8.5451 29.52 9.54212V15.2158C29.52 16.2128 28.7156 17.0211 27.7232 17.0211H22.0759C21.0835 17.0211 20.279 16.2128 20.279 15.2158V9.54212ZM22.0759 18.5684C21.0835 18.5684 20.279 19.3767 20.279 20.3737V26.0474C20.279 27.0444 21.0835 27.8527 22.0759 27.8527H27.7232C28.7156 27.8527 29.52 27.0444 29.52 26.0474V20.3737C29.52 19.3767 28.7156 18.5684 27.7232 18.5684H22.0759Z" fill="#E7B418"></path><path d="M74.1266 12.9372H68.3758C68.2708 12.1925 68.0563 11.531 67.7325 10.9527C67.4086 10.3657 66.9929 9.86624 66.4852 9.45444C65.9775 9.04264 65.3911 8.72722 64.7258 8.50818C64.0694 8.28913 63.356 8.17962 62.5857 8.17962C61.194 8.17962 59.9817 8.5257 58.9488 9.21787C57.916 9.90128 57.1151 10.9001 56.5461 12.2144C55.9772 13.5199 55.6927 15.1057 55.6927 16.972C55.6927 18.8908 55.9772 20.5029 56.5461 21.8084C57.1238 23.1139 57.9291 24.0996 58.962 24.7655C59.9948 25.4314 61.1896 25.7643 62.5463 25.7643C63.3078 25.7643 64.0125 25.6636 64.6602 25.462C65.3167 25.2605 65.8987 24.967 66.4064 24.5815C66.9141 24.1872 67.3342 23.7097 67.6668 23.1489C68.0082 22.5882 68.2445 21.9486 68.3758 21.2301L74.1266 21.2564C73.9778 22.4918 73.6058 23.6834 73.0105 24.8312C72.4241 25.9702 71.632 26.9909 70.6341 27.8934C69.645 28.7871 68.4634 29.4968 67.0891 30.0225C65.7237 30.5394 64.1788 30.7979 62.4544 30.7979C60.0561 30.7979 57.9116 30.2547 56.021 29.1682C54.1391 28.0818 52.6511 26.5091 51.5569 24.4501C50.4716 22.3911 49.9289 19.8984 49.9289 16.972C49.9289 14.0368 50.4803 11.5397 51.5832 9.48072C52.6861 7.42173 54.1828 5.85339 56.0735 4.7757C57.9641 3.68925 60.0911 3.14603 62.4544 3.14603C64.0125 3.14603 65.4567 3.36507 66.7872 3.80315C68.1264 4.24124 69.3124 4.88084 70.3453 5.72196C71.3781 6.55432 72.2184 7.57506 72.8661 8.78417C73.5226 9.99328 73.9427 11.3776 74.1266 12.9372Z" fill="#E7B418"></path><path d="M87.0047 30.8242C84.9652 30.8242 83.2015 30.3905 81.7135 29.5231C80.2343 28.6469 79.092 27.429 78.2867 25.8695C77.4814 24.3011 77.0788 22.4831 77.0788 20.4153C77.0788 18.33 77.4814 16.5076 78.2867 14.948C79.092 13.3797 80.2343 12.1618 81.7135 11.2944C83.2015 10.4182 84.9652 9.98014 87.0047 9.98014C89.0441 9.98014 90.8035 10.4182 92.2828 11.2944C93.7708 12.1618 94.9174 13.3797 95.7227 14.948C96.528 16.5076 96.9306 18.33 96.9306 20.4153C96.9306 22.4831 96.528 24.3011 95.7227 25.8695C94.9174 27.429 93.7708 28.6469 92.2828 29.5231C90.8035 30.3905 89.0441 30.8242 87.0047 30.8242ZM87.031 26.4872C87.9588 26.4872 88.7334 26.2243 89.3549 25.6986C89.9763 25.1641 90.4446 24.4369 90.7597 23.5169C91.0836 22.597 91.2455 21.5499 91.2455 20.3759C91.2455 19.2018 91.0836 18.1548 90.7597 17.2348C90.4446 16.3148 89.9763 15.5876 89.3549 15.0532C88.7334 14.5187 87.9588 14.2515 87.031 14.2515C86.0944 14.2515 85.3066 14.5187 84.6676 15.0532C84.0374 15.5876 83.5604 16.3148 83.2365 17.2348C82.9214 18.1548 82.7639 19.2018 82.7639 20.3759C82.7639 21.5499 82.9214 22.597 83.2365 23.5169C83.5604 24.4369 84.0374 25.1641 84.6676 25.6986C85.3066 26.2243 86.0944 26.4872 87.031 26.4872Z" fill="#E7B418"></path><path d="M100.362 38V10.243H105.876V13.6338H106.126C106.371 13.0905 106.725 12.5386 107.189 11.9778C107.662 11.4083 108.275 10.9352 109.028 10.5584C109.789 10.1729 110.734 9.98014 111.864 9.98014C113.334 9.98014 114.691 10.3657 115.934 11.1367C117.177 11.8989 118.17 13.0511 118.914 14.5932C119.658 16.1265 120.03 18.0496 120.03 20.3627C120.03 22.6145 119.667 24.5158 118.94 26.0666C118.223 27.6086 117.242 28.7783 115.999 29.5756C114.765 30.3642 113.382 30.7585 111.85 30.7585C110.765 30.7585 109.842 30.5789 109.08 30.2196C108.327 29.8604 107.71 29.4092 107.229 28.8659C106.747 28.314 106.38 27.7576 106.126 27.1968H105.955V38H100.362ZM105.837 20.3364C105.837 21.5368 106.003 22.5838 106.336 23.4775C106.669 24.3712 107.15 25.0678 107.78 25.5672C108.41 26.0578 109.176 26.3032 110.078 26.3032C110.988 26.3032 111.758 26.0534 112.389 25.554C113.019 25.0459 113.496 24.3449 113.82 23.4512C114.152 22.5488 114.319 21.5105 114.319 20.3364C114.319 19.1711 114.157 18.146 113.833 17.2611C113.509 16.3762 113.032 15.684 112.402 15.1846C111.772 14.6852 110.997 14.4355 110.078 14.4355C109.168 14.4355 108.397 14.6764 107.767 15.1583C107.146 15.6402 106.669 16.3236 106.336 17.2085C106.003 18.0935 105.837 19.1361 105.837 20.3364Z" fill="#E7B418"></path><path d="M126.357 38C125.648 38 124.982 37.9431 124.361 37.8291C123.748 37.724 123.241 37.5882 122.838 37.4217L124.098 33.2424C124.755 33.4439 125.346 33.5534 125.871 33.571C126.405 33.5885 126.864 33.4658 127.249 33.203C127.643 32.9401 127.963 32.4933 128.208 31.8624L128.536 31.0082L121.302 10.243H127.184L131.359 25.0678H131.569L135.784 10.243H141.705L133.867 32.6116C133.49 33.698 132.978 34.6443 132.331 35.4504C131.692 36.2652 130.882 36.8916 129.902 37.3297C128.921 37.7766 127.74 38 126.357 38Z" fill="#E7B418"></path><path d="M144.467 30.4299V3.51402H150.06V13.6338H150.231C150.476 13.0905 150.83 12.5386 151.294 11.9778C151.767 11.4083 152.38 10.9352 153.132 10.5584C153.894 10.1729 154.839 9.98014 155.968 9.98014C157.439 9.98014 158.796 10.3657 160.038 11.1367C161.281 11.8989 162.275 13.0511 163.019 14.5932C163.763 16.1265 164.135 18.0496 164.135 20.3627C164.135 22.6145 163.772 24.5158 163.045 26.0666C162.327 27.6086 161.347 28.7783 160.104 29.5756C158.87 30.3642 157.487 30.7585 155.955 30.7585C154.87 30.7585 153.946 30.5789 153.185 30.2196C152.432 29.8604 151.815 29.4092 151.334 28.8659C150.852 28.314 150.485 27.7576 150.231 27.1968H149.981V30.4299H144.467ZM149.942 20.3364C149.942 21.5368 150.108 22.5838 150.441 23.4775C150.773 24.3712 151.255 25.0678 151.885 25.5672C152.515 26.0578 153.281 26.3032 154.183 26.3032C155.093 26.3032 155.863 26.0534 156.493 25.554C157.124 25.0459 157.601 24.3449 157.925 23.4512C158.257 22.5488 158.424 21.5105 158.424 20.3364C158.424 19.1711 158.262 18.146 157.938 17.2611C157.614 16.3762 157.137 15.684 156.507 15.1846C155.876 14.6852 155.102 14.4355 154.183 14.4355C153.272 14.4355 152.502 14.6764 151.872 15.1583C151.25 15.6402 150.773 16.3236 150.441 17.2085C150.108 18.0935 149.942 19.1361 149.942 20.3364Z" fill="#E7B418"></path><path d="M176.852 30.8242C174.778 30.8242 172.992 30.4036 171.495 29.5625C170.007 28.7126 168.861 27.5123 168.055 25.9614C167.25 24.4019 166.847 22.5575 166.847 20.4284C166.847 18.3519 167.25 16.5295 168.055 14.9612C168.861 13.3928 169.994 12.1706 171.456 11.2944C172.926 10.4182 174.651 9.98014 176.629 9.98014C177.959 9.98014 179.198 10.1948 180.345 10.6241C181.5 11.0447 182.507 11.6799 183.364 12.5298C184.231 13.3797 184.905 14.4486 185.386 15.7366C185.868 17.0158 186.108 18.514 186.108 20.2313V21.769H172.375V18.4834L180.844 18.2994C180.844 17.4933 180.668 16.7792 180.318 16.1571C179.968 15.535 179.482 15.0488 178.861 14.6983C178.248 14.3391 177.535 14.1595 176.721 14.1595C175.872 14.1595 175.119 14.3566 174.463 14.7509C173.815 15.1364 173.307 15.6577 172.94 16.3148C172.572 16.9632 172.384 17.686 172.375 18.4834V21.769C172.375 22.7678 172.559 23.644 172.926 24.3712C173.303 25.0984 173.832 25.6592 174.515 26.0534C175.198 26.4477 176.007 26.6449 176.944 26.6449C177.566 26.6449 178.134 26.5572 178.651 26.382C179.167 26.2068 179.609 25.9439 179.977 25.5935C180.345 25.243 180.625 24.8137 180.817 24.3055L185.99 24.6472C185.728 25.8914 185.189 26.9778 184.375 27.9065C183.57 28.8265 182.528 29.545 181.251 30.0619C179.981 30.5701 178.515 30.8242 176.852 30.8242Z" fill="#E7B418"></path><path d="M198.744 30.8242C196.669 30.8242 194.884 30.4036 193.387 29.5625C191.899 28.7126 190.752 27.5123 189.947 25.9614C189.142 24.4019 188.739 22.5575 188.739 20.4284C188.739 18.3519 189.142 16.5295 189.947 14.9612C190.752 13.3928 191.886 12.1706 193.347 11.2944C194.818 10.4182 196.542 9.98014 198.521 9.98014C199.851 9.98014 201.09 10.1948 202.236 10.6241C203.392 11.0447 204.398 11.6799 205.256 12.5298C206.122 13.3797 206.796 14.4486 207.278 15.7366C207.759 17.0158 208 18.514 208 20.2313V21.769L194.267 21.7821V18.4834L202.735 18.2994C202.735 17.4933 202.56 16.7792 202.21 16.1571C201.86 15.535 201.374 15.0488 200.753 14.6983C200.14 14.3391 199.426 14.1595 198.612 14.1595C197.763 14.1595 197.011 14.3566 196.354 14.7509C195.706 15.1364 195.199 15.6577 194.831 16.3148C194.463 16.9632 194.275 17.686 194.267 18.4834V21.7821C194.267 22.781 194.45 23.644 194.818 24.3712C195.194 25.0984 195.724 25.6592 196.407 26.0534C197.089 26.4477 197.899 26.6449 198.836 26.6449C199.457 26.6449 200.026 26.5572 200.542 26.382C201.059 26.2068 201.501 25.9439 201.869 25.5935C202.236 25.243 202.516 24.8137 202.709 24.3055L207.882 24.6472C207.619 25.8914 207.081 26.9778 206.267 27.9065C205.462 28.8265 204.42 29.545 203.142 30.0619C201.873 30.5701 200.407 30.8242 198.744 30.8242Z" fill="#E7B418"></path></svg>