<svg width="151" height="26" viewBox="0 0 151 26" fill="none" xmlns="http://www.w3.org/2000/svg">
<path d="M0 26V0H7.58475V12.6798L10.413 9.73399L19.1547 0V8.58128L14.1411 14.601L19.1547 21.7734L14.1411 26L7.58475 16.9064L0 26Z" fill="#830BDF"/>
<path d="M44.3864 8.90809L40.1878 24.4524H34.9326L32.4858 14.3681L29.9555 24.4524H24.7281L20.5017 8.90809H25.2564L27.453 20.0231L30.0667 8.90809H35.0995L37.741 19.9674L39.9098 8.90809H44.3864Z" fill="#830BDF"/>
<path d="M47.8185 7.29238C46.9843 7.29238 46.2985 7.05095 45.7609 6.56809C45.2419 6.06667 44.9824 5.45381 44.9824 4.72952C44.9824 3.98667 45.2419 3.37381 45.7609 2.89095C46.2985 2.38952 46.9843 2.13881 47.8185 2.13881C48.6341 2.13881 49.3014 2.38952 49.8205 2.89095C50.358 3.37381 50.6268 3.98667 50.6268 4.72952C50.6268 5.45381 50.358 6.06667 49.8205 6.56809C49.3014 7.05095 48.6341 7.29238 47.8185 7.29238ZM50.1819 8.90809V24.4524H45.4272V8.90809H50.1819Z" fill="#830BDF"/>
<path d="M62.3368 24.4524L57.6099 17.9338V24.4524H52.8552V3.8381H57.6099V15.2317L62.309 8.90809H68.1759L61.7251 16.7081L68.2315 24.4524H62.3368Z" fill="#830BDF"/>
<path d="M92.7147 4.89667L85.7912 24.4524H79.8408L72.9173 4.89667H77.9779L82.816 19.661L87.6819 4.89667H92.7147Z" fill="#830BDF"/>
<path d="M96.3207 7.29238C95.4866 7.29238 94.8007 7.05095 94.2632 6.56809C93.7441 6.06667 93.4846 5.45381 93.4846 4.72952C93.4846 3.98667 93.7441 3.37381 94.2632 2.89095C94.8007 2.38952 95.4866 2.13881 96.3207 2.13881C97.1364 2.13881 97.8037 2.38952 98.3227 2.89095C98.8603 3.37381 99.1291 3.98667 99.1291 4.72952C99.1291 5.45381 98.8603 6.06667 98.3227 6.56809C97.8037 7.05095 97.1364 7.29238 96.3207 7.29238ZM98.6842 8.90809V24.4524H93.9295V8.90809H98.6842Z" fill="#830BDF"/>
<path d="M100.412 16.6524C100.412 15.0552 100.709 13.6531 101.302 12.446C101.914 11.2388 102.738 10.3102 103.777 9.66024C104.815 9.01024 105.973 8.68524 107.252 8.68524C108.272 8.68524 109.199 8.89881 110.033 9.32595C110.885 9.75309 111.553 10.3288 112.035 11.0531V3.8381H116.789V24.4524H112.035V22.2238C111.59 22.9667 110.95 23.561 110.116 24.0067C109.301 24.4524 108.346 24.6752 107.252 24.6752C105.973 24.6752 104.815 24.3502 103.777 23.7002C102.738 23.0317 101.914 22.0938 101.302 20.8867C100.709 19.661 100.412 18.2495 100.412 16.6524ZM112.035 16.6802C112.035 15.4917 111.701 14.5538 111.034 13.8667C110.385 13.1795 109.588 12.836 108.642 12.836C107.697 12.836 106.891 13.1795 106.223 13.8667C105.575 14.5352 105.25 15.4638 105.25 16.6524C105.25 17.841 105.575 18.7881 106.223 19.4938C106.891 20.181 107.697 20.5245 108.642 20.5245C109.588 20.5245 110.385 20.181 111.034 19.4938C111.701 18.8067 112.035 17.8688 112.035 16.6802Z" fill="#830BDF"/>
<path d="M134.082 16.4295C134.082 16.8752 134.055 17.3395 133.999 17.8224H123.238C123.312 18.7881 123.618 19.531 124.156 20.051C124.712 20.5524 125.389 20.8031 126.186 20.8031C127.372 20.8031 128.197 20.3017 128.66 19.2988H133.721C133.461 20.3202 132.989 21.2395 132.303 22.0567C131.636 22.8738 130.792 23.5145 129.773 23.9788C128.753 24.4431 127.613 24.6752 126.353 24.6752C124.833 24.6752 123.479 24.3502 122.293 23.7002C121.107 23.0502 120.18 22.1217 119.512 20.9145C118.845 19.7074 118.511 18.296 118.511 16.6802C118.511 15.0645 118.836 13.6531 119.485 12.446C120.152 11.2388 121.079 10.3102 122.265 9.66024C123.452 9.01024 124.814 8.68524 126.353 8.68524C127.854 8.68524 129.189 9.00095 130.356 9.63238C131.524 10.2638 132.433 11.1645 133.081 12.3345C133.749 13.5045 134.082 14.8695 134.082 16.4295ZM129.216 15.176C129.216 14.3588 128.938 13.7088 128.382 13.226C127.826 12.7431 127.131 12.5017 126.297 12.5017C125.5 12.5017 124.823 12.7338 124.267 13.1981C123.73 13.6624 123.396 14.3217 123.266 15.176H129.216Z" fill="#830BDF"/>
<path d="M142.881 24.6752C141.361 24.6752 139.989 24.3502 138.766 23.7002C137.561 23.0502 136.606 22.1217 135.902 20.9145C135.216 19.7074 134.873 18.296 134.873 16.6802C134.873 15.0831 135.225 13.681 135.93 12.4738C136.634 11.2481 137.598 10.3102 138.821 9.66024C140.045 9.01024 141.416 8.68524 142.936 8.68524C144.456 8.68524 145.828 9.01024 147.052 9.66024C148.275 10.3102 149.239 11.2481 149.943 12.4738C150.648 13.681 151 15.0831 151 16.6802C151 18.2774 150.639 19.6888 149.916 20.9145C149.211 22.1217 148.238 23.0502 146.996 23.7002C145.773 24.3502 144.401 24.6752 142.881 24.6752ZM142.881 20.5524C143.789 20.5524 144.558 20.2181 145.189 19.5495C145.837 18.881 146.162 17.9245 146.162 16.6802C146.162 15.436 145.847 14.4795 145.217 13.811C144.605 13.1424 143.845 12.8081 142.936 12.8081C142.01 12.8081 141.24 13.1424 140.629 13.811C140.017 14.461 139.711 15.4174 139.711 16.6802C139.711 17.9245 140.008 18.881 140.601 19.5495C141.213 20.2181 141.973 20.5524 142.881 20.5524Z" fill="#830BDF"/>
</svg>

