<svg width="152" height="34" viewBox="0 0 152 34" fill="none" xmlns="http://www.w3.org/2000/svg"><path d="M39.9198 8.704H43.8334V22.6086H52.3129V25.84H39.9198V8.704Z" fill="#451ECC"></path><path d="M54.2339 12.6698H58.0025V25.84H54.2339V12.6698ZM56.1182 10.8338C55.4257 10.8338 54.862 10.6298 54.4271 10.2218C53.9923 9.81376 53.7749 9.30784 53.7749 8.704C53.7749 8.10016 53.9923 7.59424 54.4271 7.18624C54.862 6.77824 55.4257 6.57424 56.1182 6.57424C56.8107 6.57424 57.3744 6.77008 57.8092 7.16176C58.2441 7.55344 58.4615 8.04304 58.4615 8.63056C58.4615 9.26704 58.2441 9.79744 57.8092 10.2218C57.3744 10.6298 56.8107 10.8338 56.1182 10.8338Z" fill="#451ECC"></path><path d="M74.4006 12.6698L68.9167 25.84H65.0272L59.5675 12.6698H63.457L67.0565 21.6294L70.7768 12.6698H74.4006Z" fill="#451ECC"></path><path d="M88.3158 19.3038C88.3158 19.3528 88.2916 19.6955 88.2433 20.332H78.411C78.5881 21.148 79.0069 21.7926 79.6672 22.2659C80.3275 22.7392 81.1489 22.9758 82.1313 22.9758C82.8077 22.9758 83.4036 22.8779 83.919 22.6821C84.4505 22.4699 84.9417 22.1435 85.3927 21.7029L87.3978 23.9061C86.1738 25.3259 84.3861 26.0358 82.0347 26.0358C80.5691 26.0358 79.2726 25.7502 78.1452 25.179C77.0179 24.5915 76.1482 23.7837 75.5362 22.7555C74.9242 21.7274 74.6182 20.5605 74.6182 19.2549C74.6182 17.9656 74.9161 16.8069 75.512 15.7787C76.124 14.7342 76.9534 13.9264 78.0003 13.3552C79.0632 12.7677 80.247 12.4739 81.5515 12.4739C82.8238 12.4739 83.9754 12.7514 85.0061 13.3062C86.0369 13.8611 86.8421 14.6608 87.4219 15.7053C88.0178 16.7334 88.3158 17.933 88.3158 19.3038ZM81.5757 15.3626C80.7221 15.3626 80.0054 15.6074 79.4256 16.097C78.8458 16.5866 78.4915 17.2557 78.3627 18.1043H84.7645C84.6357 17.272 84.2814 16.611 83.7016 16.1214C83.1218 15.6155 82.4132 15.3626 81.5757 15.3626Z" fill="#451ECC"></path><path d="M96.6469 26.1338C95.3102 26.1338 94.0137 25.9542 92.7575 25.5952C91.5174 25.2198 90.5188 24.7384 89.7619 24.1509L91.0906 21.1643C91.8153 21.7029 92.6769 22.1354 93.6755 22.4618C94.674 22.7882 95.6725 22.9514 96.6711 22.9514C97.7823 22.9514 98.6037 22.7882 99.1352 22.4618C99.6667 22.119 99.9324 21.6702 99.9324 21.1154C99.9324 20.7074 99.7714 20.3728 99.4492 20.1117C99.1432 19.8342 98.7406 19.6139 98.2413 19.4507C97.7582 19.2875 97.0979 19.108 96.2604 18.9122C94.972 18.6021 93.917 18.292 93.0957 17.9819C92.2743 17.6718 91.5657 17.1741 90.9698 16.4886C90.39 15.8032 90.1001 14.8893 90.1001 13.7469C90.1001 12.7514 90.3658 11.8538 90.8973 11.0541C91.4288 10.2381 92.226 9.59344 93.2889 9.12016C94.368 8.64688 95.6806 8.41024 97.2267 8.41024C98.3058 8.41024 99.3607 8.5408 100.391 8.80192C101.422 9.06304 102.324 9.4384 103.097 9.928L101.889 12.939C100.327 12.0414 98.7648 11.5926 97.2025 11.5926C96.1074 11.5926 95.2941 11.7722 94.7626 12.1312C94.2472 12.4902 93.9895 12.9635 93.9895 13.551C93.9895 14.1386 94.2875 14.5792 94.8834 14.873C95.4954 15.1504 96.4214 15.4278 97.6615 15.7053C98.95 16.0154 100.005 16.3254 100.826 16.6355C101.648 16.9456 102.348 17.4352 102.928 18.1043C103.524 18.7734 103.822 19.6792 103.822 20.8216C103.822 21.8008 103.548 22.6984 103 23.5144C102.469 24.3141 101.664 24.9506 100.585 25.4238C99.5056 25.8971 98.193 26.1338 96.6469 26.1338Z" fill="#451ECC"></path><path d="M114.13 12.4739C115.741 12.4739 117.037 12.9635 118.019 13.9427C119.018 14.9219 119.517 16.3744 119.517 18.3002V25.84H115.749V18.8877C115.749 17.8432 115.523 17.068 115.072 16.5621C114.621 16.0398 113.969 15.7787 113.115 15.7787C112.165 15.7787 111.408 16.0806 110.844 16.6845C110.281 17.272 109.999 18.1533 109.999 19.3283V25.84H106.23V12.6698H109.83V14.212C110.329 13.6571 110.949 13.2328 111.69 12.939C112.431 12.629 113.244 12.4739 114.13 12.4739Z" fill="#451ECC"></path><path d="M128.176 12.4739C130.189 12.4739 131.735 12.9635 132.814 13.9427C133.893 14.9056 134.433 16.3662 134.433 18.3246V25.84H130.905V24.1998C130.197 25.4238 128.876 26.0358 126.944 26.0358C125.945 26.0358 125.075 25.8645 124.335 25.5218C123.61 25.179 123.054 24.7058 122.668 24.1019C122.281 23.4981 122.088 22.8126 122.088 22.0456C122.088 20.8216 122.539 19.8587 123.441 19.157C124.359 18.4552 125.768 18.1043 127.668 18.1043H130.664C130.664 17.272 130.414 16.6355 129.915 16.1949C129.416 15.7379 128.667 15.5094 127.668 15.5094C126.976 15.5094 126.291 15.6237 125.615 15.8522C124.955 16.0643 124.391 16.3581 123.924 16.7334L122.571 14.0651C123.28 13.5592 124.125 13.1675 125.108 12.8901C126.106 12.6126 127.129 12.4739 128.176 12.4739ZM127.886 23.4654C128.53 23.4654 129.102 23.3186 129.601 23.0248C130.1 22.7147 130.455 22.2659 130.664 21.6784V20.332H128.079C126.533 20.332 125.76 20.8461 125.76 21.8742C125.76 22.3638 125.945 22.7555 126.315 23.0493C126.702 23.3267 127.225 23.4654 127.886 23.4654Z" fill="#451ECC"></path><path d="M145.526 12.4739C146.734 12.4739 147.829 12.7595 148.811 13.3307C149.81 13.8856 150.591 14.6771 151.154 15.7053C151.718 16.7171 152 17.9003 152 19.2549C152 20.6094 151.718 21.8008 151.154 22.829C150.591 23.8408 149.81 24.6323 148.811 25.2035C147.829 25.7584 146.734 26.0358 145.526 26.0358C143.867 26.0358 142.562 25.5054 141.612 24.4446V30.5891H137.843V12.6698H141.443V14.1875C142.377 13.0451 143.738 12.4739 145.526 12.4739ZM144.873 22.9024C145.84 22.9024 146.629 22.576 147.241 21.9232C147.869 21.2541 148.183 20.3646 148.183 19.2549C148.183 18.1451 147.869 17.2638 147.241 16.611C146.629 15.9419 145.84 15.6074 144.873 15.6074C143.907 15.6074 143.11 15.9419 142.482 16.611C141.87 17.2638 141.564 18.1451 141.564 19.2549C141.564 20.3646 141.87 21.2541 142.482 21.9232C143.11 22.576 143.907 22.9024 144.873 22.9024Z" fill="#451ECC"></path><path fill-rule="evenodd" clip-rule="evenodd" d="M3.67471 13.0849L6.65123 14.8692L18.5304 7.94316C18.7662 7.80582 19.0113 7.68667 19.2609 7.58729L24.8529 4.33125C27.0954 3.02549 29.8782 4.69369 29.862 7.334L29.7419 26.8427C29.7256 29.483 26.9225 31.1152 24.6962 29.7807L24.551 29.6936V25.5457L26.2462 26.5619L26.3631 7.56975L23.5169 9.22699C23.5623 9.71198 23.551 10.3127 23.5432 10.7289C23.5416 10.8164 23.5401 10.8958 23.5393 10.9642L23.3162 30.605C23.2863 33.229 20.5055 34.8481 18.2861 33.5339L1.67301 23.6963C-0.567043 22.3698 -0.555281 19.0562 1.69414 17.7464L2.00607 17.5648L5.42141 19.694L3.64446 20.7287L19.5885 30.1983L19.6303 26.8155L16.7784 25.088L4.72376 17.8617L3.12961 16.9225L3.1435 16.9144L1.6892 16.0426C-0.537072 14.708 -0.516764 11.4076 1.72575 10.1019L18.2953 0.453931C20.5378 -0.851825 23.3206 0.816371 23.3044 3.45668L23.3005 4.08301L19.7908 6.07404L19.8055 3.69243L3.67471 13.0849ZM19.7747 11.406L10.2323 16.9622L19.6816 22.6751L19.7001 21.1786L19.7747 11.406Z" fill="#451ECC"></path></svg>